<svg xmlns="http://www.w3.org/2000/svg" viewBox="0 0 64 64" id="InvoiceMail">
  <path d="M50.93,52.346A.979.979,0,0,0,51,52V26a1.067,1.067,0,0,0-.126-.47,1.16,1.16,0,0,0-.26-.319L44,20.067V17a1,1,0,0,0-1-1H38.771l-6.157-4.789a1,1,0,0,0-1.228,0L25.229,16H21a1,1,0,0,0-1,1v3.067l-6.614,5.144A1.083,1.083,0,0,0,13,26V52a1.031,1.031,0,0,0,.26.658A.96.96,0,0,0,14,53H50A1,1,0,0,0,50.93,52.346ZM36.283,39.527,49,28.227V49.9ZM21.792,34.261l5.923,5.267L15,49.9V28.227Zm7.437,6.614c3.08,2.627,2.212,3.016,5.54,0L47.19,51H16.81ZM48.437,26.051,44,29.994V22.6ZM32,13.267,35.514,16H28.486ZM22,18H42V31.771c-3.2,2.845-6.842,6.078-10,8.889-.486-.432-1.534-1.365-2.075-1.848h0L22,31.771ZM20,29.994l-4.437-3.943L20,22.6Z" fill="#595bd4" class="color000000 svgShape"></path>
  <path d="M25 31H39a1 1 0 000-2H25A1 1 0 0025 31zM25 27H39a1 1 0 000-2H25A1 1 0 0025 27zM25 23H39a1 1 0 000-2H25A1 1 0 0025 23zM32.564 35.109a4.515 4.515 0 01-1.352-.419c-.709-.7.818-1.05 1.275-.733.419.194.591.765 1.082.748a.539.539 0 00.467-.912 2.008 2.008 0 00-1.47-.693c.02-.46.047-1.083-.577-1.1-.607.016-.6.614-.577 1.069-1.088.02-2.212 1.2-1.4 2.162.591.694 2.037.73 2.809 1.114 1.016.9-.888 1.312-1.49.884-.52-.265-.741-1.3-1.487-.734-.625.88.775 1.646 1.6 1.689-.08.461-.137 1.313.544 1.316s.622-.847.546-1.308C35.03 37.991 35.176 35.472 32.564 35.109z" fill="#595bd4" class="color000000 svgShape"></path>
</svg>
